<svg version="1.1" id="Layer_1" xmlns="http://www.w3.org/2000/svg" xmlns:xlink="http://www.w3.org/1999/xlink" x="0px" y="0px"
	 width="100%" viewBox="0 0 70 70" enable-background="new 0 0 70 70" xml:space="preserve">
<path fill="#050505" opacity="1.000000" stroke="none" 
	d="
M70.000000,1.000000 
	C70.333336,1.333333 70.666664,1.666667 70.644043,2.554800 
	C67.804092,8.689509 65.287796,14.255311 62.842152,19.851984 
	C55.575062,36.482178 48.335762,53.124519 41.038704,69.375595 
	C39.429958,59.508694 37.735741,50.047153 36.382496,40.537090 
	C35.945114,37.463337 35.025497,36.096737 31.679007,35.650764 
	C21.831186,34.338387 12.049703,32.528233 2.425634,30.628769 
	C16.440355,24.460539 30.301008,18.644133 44.092365,12.667815 
	C52.781883,8.902319 61.367676,4.897476 70.000000,1.000000 
z"/>
<path fill="#FDFDFD" opacity="1.000000" stroke="none" 
	d="
M2.242250,30.912943 
	C12.049703,32.528233 21.831186,34.338387 31.679007,35.650764 
	C35.025497,36.096737 35.945114,37.463337 36.382496,40.537090 
	C37.735741,50.047153 39.429958,59.508694 41.012371,69.684723 
	C41.021961,70.586914 41.010983,70.793457 41.000000,71.000000 
	C27.740011,71.000000 14.480022,71.000000 1.000000,71.000000 
	C1.000000,57.979931 1.000000,44.958622 1.310883,31.451466 
	C1.828594,30.948055 2.035422,30.930498 2.242250,30.912943 
z"/>
<path fill="#FCFCFC" opacity="1.000000" stroke="none" 
	d="
M2.425634,30.628769 
	C2.035422,30.930498 1.828594,30.948055 1.310883,30.982807 
	C1.000000,21.044397 1.000000,11.088796 1.000000,1.000000 
	C23.687405,1.000000 46.375046,1.000000 69.531342,1.000000 
	C61.367676,4.897476 52.781883,8.902319 44.092365,12.667815 
	C30.301008,18.644133 16.440355,24.460539 2.425634,30.628769 
z"/>
<path fill="#FCFCFC" opacity="1.000000" stroke="none" 
	d="
M41.468658,71.000000 
	C41.010983,70.793457 41.021961,70.586914 41.059273,70.071243 
	C48.335762,53.124519 55.575062,36.482178 62.842152,19.851984 
	C65.287796,14.255311 67.804092,8.689509 70.644043,3.054800 
	C71.000000,25.564997 71.000000,48.129993 71.000000,71.000000 
	C61.314571,71.000000 51.625946,71.000000 41.468658,71.000000 
z"/>
</svg>